# xmcd
#
# Track frame offsets:
# 150
# 17167
# 32320
# 48910
# 64400
# 81447
# 97175
# 115070
# 131740
# 150107
# 168235
# 182490
# 200327
# 216437
#
# Disc length: 3040 seconds
#
#
# Revision: 0
# Processed by: cddbd v1.5.2PL0 Copyright (c) Steve Scherf et al.
# Submitted via: FreeRIP 2.944 
#
DISCID=b70bde0e
DTITLE=KLB AO VIVO - KLB - SÓ SUCESSOS AO VIVO
DYEAR=2003
DGENRE=Blues
TTITLE0=KLB - Não olhe assim
TTITLE1=KLB - Por causa de você
TTITLE2=KLB - Minha timidez
TTITLE3=KLB - Não vou desistir
TTITLE4=KLB - Só desta vez
TTITLE5=KLB - Estou em suas mãos
TTITLE6=KLB - Vem de uma vez
TTITLE7=KLB - A dor desse amor
TTITLE8=KLB - Chuvas de verão
TTITLE9=KLB - Por que tem que ser assim?
TTITLE10=KLB - A cada dez palavras
TTITLE11=KLB - Ela não esta aqui
TTITLE12=KLB - olhar 43
TTITLE13=KLB - Sensação
EXTD=
EXTT0=
EXTT1=
EXTT2=
EXTT3=
EXTT4=
EXTT5=
EXTT6=
EXTT7=
EXTT8=
EXTT9=
EXTT10=
EXTT11=
EXTT12=
EXTT13=
PLAYORDER=
